<svg xmlns="http://www.w3.org/2000/svg" width="700" height="1050" viewBox="0 0 700 1050" fill="none">
  <defs>
    <linearGradient id="g0" x1="0" y1="0" x2="1" y2="1">
      <stop offset="0" stop-color="#ff72c7"/>
      <stop offset="0.28" stop-color="#ffd15c"/>
      <stop offset="0.52" stop-color="#7effdb"/>
      <stop offset="0.75" stop-color="#76b8ff"/>
      <stop offset="1" stop-color="#c28bff"/>
    </linearGradient>
    <radialGradient id="g1" cx="50%" cy="48%" r="58%">
      <stop offset="0" stop-color="#fff4ff" stop-opacity="0.38"/>
      <stop offset="1" stop-color="#130726" stop-opacity="0.66"/>
    </radialGradient>
    <pattern id="stars" width="84" height="84" patternUnits="userSpaceOnUse">
      <circle cx="10" cy="14" r="1.8" fill="#fff3ff" fill-opacity="0.52"/>
      <circle cx="52" cy="24" r="1.2" fill="#fff3ff" fill-opacity="0.45"/>
      <circle cx="30" cy="58" r="1.4" fill="#fff3ff" fill-opacity="0.45"/>
      <path d="M68 52l2 4 4 2-4 2-2 4-2-4-4-2 4-2 2-4z" fill="#fff8ff" fill-opacity="0.44"/>
    </pattern>
  </defs>
  <rect width="700" height="1050" rx="40" fill="url(#g0)"/>
  <rect width="700" height="1050" rx="40" fill="url(#g1)"/>
  <rect width="700" height="1050" rx="40" fill="url(#stars)"/>
  <g opacity="0.72">
    <circle cx="350" cy="525" r="220" stroke="#fff8ff" stroke-opacity="0.6" stroke-width="2"/>
    <circle cx="350" cy="525" r="150" stroke="#fff8ff" stroke-opacity="0.56" stroke-width="2"/>
    <path d="M350 290l48 146h154l-124 90 47 147-125-90-124 90 47-147-124-90h154z" fill="#fff7ff" fill-opacity="0.18" stroke="#fff7ff" stroke-opacity="0.56" stroke-width="2"/>
  </g>
  <rect x="28" y="28" width="644" height="994" rx="30" stroke="#fff7ff" stroke-opacity="0.7" stroke-width="2"/>
</svg>
