<svg xmlns="http://www.w3.org/2000/svg" viewBox="0 0 1000 1400" fill="none">
  <g stroke="#d2b57f" stroke-opacity="0.5" stroke-width="12" stroke-linecap="round">
    <path d="M500 90L300 220" />
    <path d="M500 90L700 220" />
    <path d="M300 220L700 220" />

    <path d="M300 220L260 470" />
    <path d="M700 220L740 470" />
    <path d="M260 470L740 470" />

    <path d="M300 220L500 650" />
    <path d="M700 220L500 650" />
    <path d="M260 470L500 650" />
    <path d="M740 470L500 650" />

    <path d="M260 470L300 860" />
    <path d="M740 470L700 860" />
    <path d="M500 650L300 860" />
    <path d="M500 650L700 860" />
    <path d="M300 860L700 860" />

    <path d="M300 860L500 1080" />
    <path d="M700 860L500 1080" />
    <path d="M500 650L500 1080" />

    <path d="M300 860L500 1280" />
    <path d="M700 860L500 1280" />
    <path d="M500 1080L500 1280" />

    <path d="M260 470L500 1080" />
    <path d="M740 470L500 1080" />
  </g>

  <g stroke="#94cfc2" stroke-opacity="0.45" stroke-width="7">
    <circle cx="500" cy="90" r="36" />
    <circle cx="300" cy="220" r="36" />
    <circle cx="700" cy="220" r="36" />
    <circle cx="260" cy="470" r="36" />
    <circle cx="740" cy="470" r="36" />
    <circle cx="500" cy="650" r="36" />
    <circle cx="300" cy="860" r="36" />
    <circle cx="700" cy="860" r="36" />
    <circle cx="500" cy="1080" r="36" />
    <circle cx="500" cy="1280" r="36" />
  </g>
</svg>
