<?xml version="1.0" encoding="UTF-8" standalone="no"?>
<svg
   xmlns:dc="http://purl.org/dc/elements/1.1/"
   xmlns:cc="http://creativecommons.org/ns#"
   xmlns:rdf="http://www.w3.org/1999/02/22-rdf-syntax-ns#"
   xmlns:svg="http://www.w3.org/2000/svg"
   xmlns="http://www.w3.org/2000/svg"
   xmlns:sodipodi="http://sodipodi.sourceforge.net/DTD/sodipodi-0.dtd"
   xmlns:inkscape="http://www.inkscape.org/namespaces/inkscape"
   width="300"
   height="300"
   id="svg2"
   version="1.1"
   inkscape:version="0.48.2 r9819"
   sodipodi:docname="unicursal hexagram.svg">
  <defs id="defs4" />
  <metadata id="metadata7">
    <rdf:RDF>
      <cc:Work rdf:about="">
        <dc:format>image/svg+xml</dc:format>
        <dc:type rdf:resource="http://purl.org/dc/dcmitype/StillImage" />
        <dc:title></dc:title>
      </cc:Work>
    </rdf:RDF>
  </metadata>
  <g inkscape:label="Layer 1" inkscape:groupmode="layer" id="layer1" transform="translate(0,-752.36218)">
    <path
       style="fill:none;stroke:#000000;stroke-width:4;stroke-linecap:round;stroke-linejoin:miter;stroke-miterlimit:4;stroke-opacity:1;stroke-dasharray:none"
       d="m 149.43596,757.31731 c -2.13058,0.0524 -4.24834,0.55807 -6.21314,1.49702 l -53.622775,29.15326 c -2.62718,1.42653 -4.67935,3.73389 -5.80903,6.52387 L 30.608285,928.46057 c -1.48432,3.72267 -1.09984,8.08687 1.02538,11.4718 l 53.18274,83.96853 c 1.12926,2.7899 3.18139,5.0973 5.80864,6.5238 l 53.623135,29.1533 c 4.68637,2.5494 10.3751,2.5494 15.06147,0 l 53.62319,-29.1533 c 2.62712,-1.4265 4.67928,-3.7339 5.80857,-6.5238 l 53.18283,-83.96853 c 2.12517,-3.38493 2.50969,-7.74913 1.02537,-11.4718 L 219.76744,794.49146 c -1.12964,-2.78998 -3.1819,-5.09734 -5.80914,-6.52387 l -53.62277,-29.15326 c -3.92961,-1.87788 -8.46511,-1.99331 -12.45895,-0.77048 m -2.60253,95.13696 c -2.36706,0.83563 -4.41252,2.44062 -5.73719,4.73311 L 86.28413,944.69797 c -2.34576,4.08163 -2.34904,9.10976 0,13.19444 l 53.22999,93.28879 c 4.68638,8.1355 16.17373,8.1355 20.86013,0 l 53.23,-93.28879 c 2.34904,-4.08468 2.34573,-9.11281 0,-13.19444 l -53.23,-93.2888 c -2.01453,-3.49944 -5.69226,-5.39731 -9.5,-5.63628" id="path2996" inkscape:connector-curvature="0" />
  </g>
</svg>
